<!-- filepath: /frontend/public/google-icon.svg -->
<svg xmlns="http://www.w3.org/2000/svg" viewBox="0 0 48 48" width="24" height="24">
  <g>
    <path fill="#4285F4" d="M24 9.5c3.54 0 6.36 1.23 8.32 3.23l6.19-6.19C34.62 2.34 29.74 0 24 0 14.82 0 6.73 5.48 2.69 13.44l7.62 5.93C12.13 13.13 17.62 9.5 24 9.5z"/>
    <path fill="#34A853" d="M46.1 24.5c0-1.56-.14-3.06-.41-4.5H24v9h12.44c-.54 2.9-2.17 5.36-4.62 7.02l7.19 5.6C43.27 37.73 46.1 31.73 46.1 24.5z"/>
    <path fill="#FBBC05" d="M10.31 28.37c-1.13-3.36-1.13-6.98 0-10.34l-7.62-5.93C.64 16.27 0 20.02 0 24c0 3.98.64 7.73 2.69 11.9l7.62-5.93z"/>
    <path fill="#EA4335" d="M24 48c6.48 0 11.93-2.14 15.91-5.84l-7.19-5.6c-2.01 1.35-4.59 2.14-8.72 2.14-6.38 0-11.87-3.63-14.69-8.97l-7.62 5.93C6.73 42.52 14.82 48 24 48z"/>
    <path fill="none" d="M0 0h48v48H0z"/>
  </g>
</svg>